<svg width="390" height="10" viewBox="0 0 390 10" fill="none" xmlns="http://www.w3.org/2000/svg">
<path d="M388.171 5.48054C388.886 4.97036 389.601 4.41995 388.902 4.08524C348.189 3.78588 308.179 3.66029 266.765 3.18714C258.301 3.31461 225.168 3.07288 190.45 2.68155C155.557 2.24678 119.257 1.62538 104.457 1.27512C103.576 1.25907 102.695 1.24301 101.814 1.22695C85.6034 0.891228 65.8673 0.571739 52.1171 0.64308C45.7699 0.728619 39.422 0.854391 33.0741 0.980163C36.0667 1.19569 38.7069 1.4048 41.1709 1.6107C34.6519 1.45163 28.1329 1.29256 25.663 1.40853C11.7352 1.55712 19.4796 2.18123 24.7541 2.92131C28.6256 3.2736 23.332 3.57958 29.3172 4.01064C25.0889 3.89332 22.9744 3.85478 18.5699 3.73425C18.0362 4.00625 31.9633 3.89789 28.9604 4.24561C24.7336 4.04783 20.1492 4.12526 15.7447 4.00473C17.1478 4.39252 30.7188 4.4789 30.0081 4.78791C27.7159 4.82662 17.8592 4.04327 16.9701 4.46977C16.7924 4.54703 21.1969 4.66755 23.3114 4.7061C9.91807 4.54246 2.50996 4.8099 14.6589 5.55454C10.4306 5.43722 4.44313 5.12686 0.0371703 5.08679C2.32715 5.16878 6.02608 5.31669 8.14059 5.35523C5.67366 5.31027 3.03126 5.22186 0.564331 5.17689C0.915282 5.26378 1.44318 5.31365 1.79413 5.40054C3.73169 5.4761 5.66853 5.5919 7.60683 5.62723C5.84473 5.59511 4.25959 5.52597 2.4975 5.49385C3.72803 5.67727 5.1355 5.82366 6.71845 6.0135C12.7037 6.44456 18.5113 6.95288 21.6823 7.05092C47.9323 7.81111 74.36 8.49405 100.615 8.97261C100.618 8.81167 99.2113 8.62505 101.503 8.58634C108.379 8.55067 113.832 9.17326 120.707 9.13759C120.884 9.06033 121.062 8.98308 121.24 8.86559C126.524 9.08265 132.161 9.30612 137.797 9.5296C148.195 9.63863 158.592 9.78789 168.815 9.81325C168.464 9.72636 168.467 9.60566 169.348 9.62172C173.578 9.61834 179.568 9.808 185.735 9.92042C186.616 9.93648 187.498 9.9123 188.379 9.92836C189.085 9.90098 189.263 9.78349 189.44 9.74647C192.259 9.79786 194.726 9.84282 197.016 9.92481C227.16 9.8303 257.658 9.58129 290.801 9.34022C297.855 9.14683 304.733 8.99046 311.432 8.95158C321.479 8.93349 334.165 9.20497 344.034 9.3446C342.465 8.39034 366.089 8.13676 361.172 7.16171C367.692 7.24031 377.385 7.3365 377.919 7.0645C378.635 6.47386 381.289 5.91854 388.171 5.48054Z" fill="#4169E1"/>
</svg>
