<svg width="100" height="34" viewBox="0 0 100 34" fill="none" xmlns="http://www.w3.org/2000/svg">
<g clip-path="url(#clip0)">
<path d="M12.1656 23.0277C12.6572 23.0277 13.0688 23.1992 13.4118 23.5308C13.7549 23.8852 13.9149 24.2969 13.9149 24.7771C13.9149 25.2687 13.7434 25.6918 13.4118 26.0348C13.0688 26.3778 12.6572 26.5379 12.1656 26.5379H1.77224C1.70364 26.5379 1.64647 26.5264 1.5893 26.515C1.29202 26.4921 1.02904 26.4007 0.800366 26.2292C0.400183 25.9662 0.148639 25.6003 0.0457352 25.1201C-0.057169 24.6399 0.0343014 24.2054 0.308713 23.8052L8.87263 10.9193H1.77224C1.28059 10.9193 0.868969 10.7478 0.525955 10.4162C0.182941 10.0618 0 9.65016 0 9.16994C0 8.67829 0.171507 8.26667 0.525955 7.92366C0.868969 7.56921 1.28059 7.39771 1.77224 7.39771H12.177C12.5314 7.40914 12.8516 7.51204 13.1374 7.69498C13.5376 7.95796 13.7892 8.32384 13.8692 8.80406C13.9721 9.28428 13.8921 9.7302 13.6291 10.1418L5.0423 23.0277H12.1656Z" fill="#4169E1"/>
<path d="M32.0828 15.1726C32.0828 15.8129 31.9227 16.4075 31.5911 16.9448C30.9165 18.1111 29.8989 18.6942 28.5612 18.6942L19.8029 18.7171C19.8029 19.9062 20.2259 20.9238 21.0606 21.7699C21.9067 22.616 22.9129 23.0276 24.1134 23.0276H24.2506C25.7027 23.0276 26.8689 22.4331 27.7379 21.244C28.241 20.5579 28.9042 20.3521 29.716 20.638C30.2762 20.8323 30.6535 21.1982 30.825 21.7699C30.9966 22.3416 30.9165 22.879 30.5621 23.3478C28.9956 25.4859 26.8918 26.5492 24.2506 26.5492H24.1134C21.9638 26.5492 20.123 25.7946 18.6023 24.2739C17.0816 22.7646 16.3156 20.9467 16.2812 18.7971V15.184C16.2812 13.0231 17.0473 11.1822 18.5794 9.67295C20.1116 8.14082 21.9524 7.37476 24.1134 7.37476H24.2506C26.4345 7.37476 28.2867 8.15225 29.8189 9.70725C30.5506 10.4504 31.0995 11.2965 31.4996 12.2456C31.7169 12.7601 31.8655 13.2975 31.957 13.8463C32.0485 14.2808 32.0942 14.5094 32.0942 14.5094C32.0942 14.5094 32.0828 14.7267 32.0828 15.1726ZM19.8029 15.1955H28.5383C28.5268 14.0178 28.1038 13.0002 27.2806 12.1426C26.423 11.2965 25.4169 10.8849 24.2506 10.8849H24.1134C22.9243 10.8849 21.9067 11.308 21.0606 12.1426C20.2145 12.9888 19.8029 13.9949 19.8029 15.1726V15.1955Z" fill="#4169E1"/>
<path d="M36.8624 33.947C36.3707 33.947 35.9477 33.7755 35.6046 33.4439C35.2616 33.0895 35.1016 32.6664 35.1016 32.1862V9.08995C35.1016 8.60973 35.2731 8.19811 35.6046 7.84366C35.9591 7.50065 36.3707 7.34058 36.8624 7.34058C37.7656 7.34058 38.3259 7.78649 38.5546 8.67833C39.8695 7.78649 41.333 7.34058 42.9223 7.34058H43.0595C45.2205 7.34058 47.0613 8.10664 48.5934 9.63877C50.1256 11.1709 50.8916 13.0117 50.8916 15.1727V18.7515C50.8916 20.9125 50.1256 22.7533 48.5934 24.2855C47.0613 25.8176 45.2205 26.5837 43.0595 26.5837H42.9223C41.3558 26.5837 39.9152 26.1492 38.6117 25.2802V32.1748C38.6117 32.6664 38.4402 33.0895 38.1087 33.4325C37.7542 33.7755 37.3426 33.947 36.8624 33.947ZM38.6117 18.7515C38.6117 19.9406 39.0348 20.9582 39.8695 21.8043C40.7156 22.6504 41.7217 23.062 42.9223 23.062H43.0595C44.2372 23.062 45.2548 22.639 46.0894 21.8043C46.947 20.9582 47.37 19.9521 47.37 18.7515V15.1613C47.37 13.9722 46.947 12.9546 46.0894 12.1085C45.2433 11.2624 44.2372 10.8508 43.0595 10.8508H42.9223C41.7332 10.8508 40.7156 11.2738 39.8695 12.1085C39.0234 12.9546 38.6117 13.9607 38.6117 15.1613V18.7515Z" fill="#4169E1"/>
<path d="M55.671 33.9472C55.1793 33.9472 54.7563 33.7757 54.4132 33.4441C54.0702 33.0897 53.9102 32.6666 53.9102 32.1864V9.09011C53.9102 8.60989 54.0817 8.19827 54.4132 7.84383C54.7677 7.50081 55.1907 7.34074 55.671 7.34074C56.5742 7.34074 57.1345 7.78666 57.3632 8.67849C58.6781 7.76379 60.1416 7.31787 61.7309 7.31787H61.8681C64.0291 7.31787 65.8699 8.08394 67.402 9.61606C68.9342 11.1482 69.7002 12.989 69.7002 15.15V18.7517C69.7002 20.9127 68.9342 22.7535 67.402 24.2856C65.8699 25.8178 64.0291 26.5838 61.8681 26.5838H61.7309C60.1644 26.5838 58.7238 26.1493 57.4203 25.2804V32.1749C57.4203 32.6666 57.2488 33.0897 56.9172 33.4327C56.5628 33.7757 56.1512 33.9472 55.671 33.9472ZM57.4203 18.7517C57.4203 19.9408 57.8434 20.9584 58.6781 21.8045C59.5127 22.6506 60.5303 23.0622 61.7309 23.0622H61.8681C63.0458 23.0622 64.0634 22.6392 64.898 21.8045C65.7556 20.9584 66.1786 19.9522 66.1786 18.7517V15.1615C66.1786 13.9723 65.7556 12.9547 64.898 12.1086C64.0519 11.2625 63.0458 10.8509 61.8681 10.8509H61.7309C60.5418 10.8509 59.5242 11.274 58.6781 12.1086C57.832 12.9547 57.4203 13.9609 57.4203 15.1615V18.7517Z" fill="#4169E1"/>
<path d="M80.1734 23.0277C80.665 23.0277 81.0766 23.1992 81.4197 23.5308C81.7741 23.8852 81.9456 24.2968 81.9456 24.777C81.9456 25.2687 81.7741 25.6917 81.4197 26.0348C81.0766 26.3778 80.665 26.5378 80.1734 26.5378H80.1505C77.9895 26.5378 76.1487 25.7718 74.6166 24.2397C73.0844 22.7075 72.3184 20.8667 72.3184 18.7057V1.74937C72.3184 1.26915 72.4899 0.857535 72.8214 0.503087C73.1759 0.160073 73.5875 0 74.0792 0C74.5594 0 74.971 0.171507 75.3254 0.503087C75.6685 0.857535 75.8285 1.26915 75.8285 1.74937V7.58061H78.6755C79.1672 7.58061 79.5788 7.75212 79.9218 8.0837C80.2763 8.42671 80.4478 8.83833 80.4478 9.32998C80.4478 9.82163 80.2763 10.2332 79.9218 10.5763C79.5788 10.9307 79.1672 11.1022 78.6755 11.1022H75.8285V18.7057C75.8285 19.8948 76.2516 20.9124 77.0863 21.7585C77.9324 22.6046 78.9385 23.0162 80.1391 23.0162H80.1734V23.0277Z" fill="#4169E1"/>
<path d="M92.1679 7.2832C94.3289 7.2832 96.1697 8.04927 97.7018 9.5814C99.234 11.1135 100 12.9544 100 15.1154V18.7056C100 20.8666 99.234 22.7074 97.7018 24.2395C96.1697 25.7717 94.3289 26.5377 92.1679 26.5377H92.0421C89.8811 26.5377 88.0403 25.7717 86.5082 24.2395C84.976 22.7074 84.21 20.8666 84.21 18.7056V15.1154C84.21 12.9544 84.976 11.1135 86.5082 9.5814C88.0403 8.04927 89.8811 7.2832 92.0421 7.2832H92.1679ZM96.4784 15.1154C96.4784 13.9262 96.0554 12.9086 95.1978 12.0625C94.3517 11.2164 93.3456 10.8048 92.1679 10.8048H92.0421C90.853 10.8048 89.8354 11.2279 88.9893 12.0625C88.1432 12.9086 87.7316 13.9148 87.7316 15.1154V18.7056C87.7316 19.8947 88.1546 20.9123 88.9893 21.7584C89.8354 22.6045 90.8416 23.0161 92.0421 23.0161H92.1793C93.357 23.0161 94.3746 22.5931 95.2093 21.7584C96.0668 20.9123 96.4899 19.9061 96.4899 18.7056V15.1154H96.4784Z" fill="#4169E1"/>
</g>
<defs>
<clipPath id="clip0">
<rect width="100" height="33.9469" fill="white"/>
</clipPath>
</defs>
</svg>
